{"asset":{"version":"2.0","generator":"THREE.GLTFExporter"},"scenes":[{"nodes":[0]}],"scene":0,"nodes":[{"mesh":0}],"bufferViews":[{"buffer":0,"byteOffset":0,"byteLength":23400,"target":34962,"byteStride":12},{"buffer":0,"byteOffset":23400,"byteLength":3900,"target":34963}],"buffers":[{"byteLength":27300,"uri":"data:application/octet-stream;base64,"}],"accessors":[{"bufferView":0,"componentType":5126,"count":1950,"max":[59,3.4000000953674316,19.099998474121094],"min":[-59,1.4000000953674316,-18.90000343322754],"type":"VEC3"},{"bufferView":1,"componentType":5123,"count":1950,"max":[1949],"min":[0],"type":"SCALAR"}],"materials":[{"pbrMetallicRoughness":{"metallicFactor":0,"roughnessFactor":1}}],"meshes":[{"primitives":[{"mode":4,"attributes":{"POSITION":0},"indices":1,"material":0}]}]}